<?xml version="1.0" encoding="UTF-8"?>
<svg xmlns="http://www.w3.org/2000/svg" version="1.1" width="81.0" height="33.0" viewBox="-0.5 -0.5 81.0 33.0">
<rect x="0" y="0" width="16" height="16" fill="#352a55" />
<rect x="0" y="0" width="16" height="16" fill="none" stroke="black" stroke-width="1.0"/>
<rect x="0" y="16" width="16" height="16" fill="#3e3264" />
<rect x="0" y="16" width="16" height="16" fill="none" stroke="black" stroke-width="1.0"/>
<rect x="16" y="0" width="16" height="16" fill="#0188a5" />
<rect x="16" y="0" width="16" height="16" fill="none" stroke="black" stroke-width="1.0"/>
<rect x="16" y="16" width="16" height="16" fill="#01cbcf" />
<rect x="16" y="16" width="16" height="16" fill="none" stroke="black" stroke-width="1.0"/>
<rect x="32" y="0" width="16" height="16" fill="#0bffe6" />
<rect x="32" y="0" width="16" height="16" fill="none" stroke="black" stroke-width="1.0"/>
<rect x="32" y="16" width="16" height="16" fill="#fffdff" />
<rect x="32" y="16" width="16" height="16" fill="none" stroke="black" stroke-width="1.0"/>
<rect x="48" y="0" width="16" height="16" fill="#ffd080" />
<rect x="48" y="0" width="16" height="16" fill="none" stroke="black" stroke-width="1.0"/>
<rect x="48" y="16" width="16" height="16" fill="#ff9e7d" />
<rect x="48" y="16" width="16" height="16" fill="none" stroke="black" stroke-width="1.0"/>
<rect x="64" y="0" width="16" height="16" fill="#fe546f" />
<rect x="64" y="0" width="16" height="16" fill="none" stroke="black" stroke-width="1.0"/>
<rect x="64" y="16" width="16" height="16" fill="#df0772" />
<rect x="64" y="16" width="16" height="16" fill="none" stroke="black" stroke-width="1.0"/>
</svg>